<svg width="21" height="18" viewBox="0 0 21 18" fill="none" xmlns="http://www.w3.org/2000/svg">
<g clip-path="url(#clip0_2281_16909)">
<path d="M10.0296 5.53848V0.923096H7.25756L5.92572 5.53848H10.0296Z" fill="white"/>
<path d="M13.5131 0.923096H10.9719V5.53848H14.8434L13.5131 0.923096Z" fill="#A9BDE8"/>
<path d="M6.27752 0.923096H3.53532L1.18262 5.53848H4.94726L6.27752 0.923096Z" fill="#A9BDE8"/>
<path d="M19.7828 5.53848L17.5071 0.923096H14.4916L15.8234 5.53848H19.7828Z" fill="white"/>
<path d="M7.20257 10.4954C5.9901 10.4954 5.00378 11.4461 5.00378 12.6138V17.0754H9.40136V12.6138C9.40136 11.4446 8.41505 10.4954 7.20257 10.4954Z" fill="white"/>
<path d="M17.4112 11.0769H13.1707V15.2308H17.4112V11.0769Z" fill="white"/>
<path d="M15.58 7.3739C15.1025 8.25082 14.1665 8.82159 13.0404 8.82159C11.9143 8.82159 10.9782 8.25082 10.5008 7.3739C10.0233 8.25082 9.08725 8.82159 7.96116 8.82159C6.83506 8.82159 5.89901 8.25082 5.42156 7.3739C4.94411 8.25082 4.00805 8.82159 2.88196 8.82159C2.63695 8.82159 2.40136 8.79082 2.17834 8.74006V17.077H4.06302V12.6154C4.06302 10.9385 5.47182 9.5739 7.20415 9.5739C8.93648 9.5739 10.3453 10.9385 10.3453 12.6154V17.077H18.9834V8.70313C18.7132 8.78006 18.4242 8.82159 18.1227 8.82159C16.9966 8.82159 16.0606 8.25082 15.5831 7.3739H15.58ZM18.3536 10.6154V15.6924C18.3536 15.9477 18.1431 16.1539 17.8824 16.1539H12.6995C12.4388 16.1539 12.2284 15.9477 12.2284 15.6924V10.6154C12.2284 10.3601 12.4388 10.1539 12.6995 10.1539H17.8824C18.1431 10.1539 18.3536 10.3601 18.3536 10.6154Z" fill="#FFDCC9"/>
<path d="M4.76665 6.46155H0.995728C1.19519 7.30616 1.93964 7.89847 2.8804 7.89847C3.82117 7.89847 4.56562 7.30616 4.76665 6.46155Z" fill="white"/>
<path d="M7.9612 7.89847C8.90196 7.89847 9.64641 7.30616 9.84587 6.46155H6.07495C6.27441 7.30616 7.01886 7.89847 7.9612 7.89847Z" fill="#A9BDE8"/>
<path d="M13.0404 7.89847C13.9811 7.89847 14.7256 7.30616 14.925 6.46155H11.1541C11.3536 7.30616 12.098 7.89847 13.0388 7.89847H13.0404Z" fill="white"/>
<path d="M18.1196 7.89847C19.0604 7.89847 19.8048 7.30616 20.0043 6.46155H16.2333C16.4328 7.30616 17.1772 7.89847 18.1196 7.89847Z" fill="#A9BDE8"/>
<path d="M20.9073 5.69692L18.0992 0H2.95266L0.050258 5.69538C0.00628225 5.78154 -0.00785281 5.87385 0.00471169 5.96154C0.00471169 5.97385 0 5.98769 0 6C0 7 0.479022 7.84462 1.23446 8.34308V18H19.9242V8.22923C20.5885 7.72154 21.0016 6.92769 21.0016 6C21.0016 5.91385 20.9764 5.83385 20.934 5.76308C20.9278 5.74 20.9199 5.71846 20.9089 5.69538L20.9073 5.69692ZM17.5071 0.923077L19.7828 5.53846H15.8234L14.4916 0.923077H17.5071ZM10.972 0.923077H13.5131L14.845 5.53846H10.972V0.923077ZM14.9266 6.46154C14.7272 7.30615 13.9827 7.89846 13.042 7.89846C12.1012 7.89846 11.3567 7.30615 11.1573 6.46154H14.9282H14.9266ZM10.0296 0.923077V5.53846H5.92573L7.25757 0.923077H10.0296ZM9.84586 6.46154C9.6464 7.30615 8.90195 7.89846 7.96118 7.89846C7.02042 7.89846 6.27597 7.30615 6.07494 6.46154H9.84586ZM3.53534 0.923077H6.27754L4.9457 5.53846H1.18263L3.53534 0.923077ZM0.995737 6.46154H4.76666C4.5672 7.30615 3.82275 7.89846 2.88041 7.89846C1.93807 7.89846 1.1952 7.30615 0.995737 6.46154ZM9.40139 17.0769H5.00381V12.6154C5.00381 11.4462 5.99013 10.4969 7.2026 10.4969C8.41508 10.4969 9.40139 11.4477 9.40139 12.6154V17.0769ZM18.9818 17.0769H10.3437V12.6154C10.3437 10.9385 8.93493 9.57385 7.2026 9.57385C5.47027 9.57385 4.06148 10.9385 4.06148 12.6154V17.0769H2.1768V8.74C2.40139 8.79077 2.6354 8.82154 2.88041 8.82154C4.00651 8.82154 4.94256 8.25077 5.42001 7.37385C5.89746 8.25077 6.83352 8.82154 7.95961 8.82154C9.08571 8.82154 10.0218 8.25077 10.4992 7.37385C10.9767 8.25077 11.9127 8.82154 13.0388 8.82154C14.1649 8.82154 15.101 8.25077 15.5784 7.37385C16.0559 8.25077 16.9919 8.82154 18.118 8.82154C18.4211 8.82154 18.7101 8.78 18.9787 8.70308V17.0769H18.9818ZM18.1212 7.89846C17.1788 7.89846 16.4359 7.30615 16.2349 6.46154H20.0058C19.8064 7.30615 19.0619 7.89846 18.1212 7.89846Z" fill="#4565AC"/>
<path d="M12.6996 10.1538C12.4388 10.1538 12.2284 10.36 12.2284 10.6153V15.6923C12.2284 15.9477 12.4388 16.1538 12.6996 16.1538H17.8824C18.1431 16.1538 18.3536 15.9477 18.3536 15.6923V10.6153C18.3536 10.36 18.1431 10.1538 17.8824 10.1538H12.6996ZM17.4113 15.2307H13.1707V11.0769H17.4113V15.2307Z" fill="#4565AC"/>
</g>
<defs>
<clipPath id="clip0_2281_16909">
<rect width="21" height="18" fill="white"/>
</clipPath>
</defs>
</svg>
